HIERARCHY
ROOT hip
{
  OFFSET 0 0 0
  CHANNELS 6 Xposition Yposition Zposition Zrotation Yrotation Xrotation
  JOINT abdomen
  {
    OFFSET 0 20.6881 -0.73152
    CHANNELS 3 Zrotation Xrotation Yrotation
    JOINT chest
    {
      OFFSET 0 11.7043 -0.48768
      CHANNELS 3 Zrotation Xrotation Yrotation
      JOINT neck
      {
        OFFSET 0 22.1894 -2.19456
        CHANNELS 3 Zrotation Xrotation Yrotation
        JOINT head
        {
          OFFSET -0.24384 7.07133 1.2192
          CHANNELS 3 Zrotation Xrotation Yrotation
          JOINT leftEye
          {
            OFFSET 4.14528 8.04674 8.04672
            CHANNELS 3 Zrotation Xrotation Yrotation
            End Site
            {
              OFFSET 1 0 0
            }
          }
          JOINT rightEye
          {
            OFFSET -3.6576 8.04674 8.04672
            CHANNELS 3 Zrotation Xrotation Yrotation
            End Site
            {
              OFFSET 1 0 0
            }
          }
        }
      }
      JOINT rCollar
      {
        OFFSET -2.68224 19.2634 -4.8768
        CHANNELS 3 Zrotation Xrotation Yrotation
        JOINT rShldr
        {
          OFFSET -8.77824 -1.95073 1.46304
          CHANNELS 3 Zrotation Xrotation Yrotation
          JOINT rForeArm
          {
            OFFSET -28.1742 -1.7115 0.48768
            CHANNELS 3 Zrotation Xrotation Yrotation
            JOINT rHand
            {
              OFFSET -22.5879 0.773209 7.07136
              CHANNELS 3 Zrotation Xrotation Yrotation
              JOINT rThumb1
              {
                OFFSET -1.2192 -0.487915 3.41376
                CHANNELS 3 Zrotation Xrotation Yrotation
                JOINT rThumb2
                {
                  OFFSET -3.37035 -0.52449 3.41376
                  CHANNELS 3 Zrotation Xrotation Yrotation
                  End Site
                  {
                    OFFSET -1.78271 -1.18214 1.43049
                  }
                }
              }
              JOINT rIndex1
              {
                OFFSET -7.75947 0.938293 5.60832
                CHANNELS 3 Zrotation Xrotation Yrotation
                JOINT rIndex2
                {
                  OFFSET -2.54057 -0.884171 1.56538
                  CHANNELS 3 Zrotation Xrotation Yrotation
                  End Site
                  {
                    OFFSET -1.62519 -0.234802 1.16502
                  }
                }
              }
              JOINT rMid1
              {
                OFFSET -8.24714 1.18213 3.41376
                CHANNELS 3 Zrotation Xrotation Yrotation
                JOINT rMid2
                {
                  OFFSET -3.10165 -0.590103 1.0647
                  CHANNELS 3 Zrotation Xrotation Yrotation
                  End Site
                  {
                    OFFSET -2.48547 -0.328903 0.83742
                  }
                }
              }
              JOINT rRing1
              {
                OFFSET -8.82822 0.546677 1.51678
                CHANNELS 3 Zrotation Xrotation Yrotation
                JOINT rRing2
                {
                  OFFSET -2.60934 -0.819778 -0.0198488
                  CHANNELS 3 Zrotation Xrotation Yrotation
                  End Site
                  {
                    OFFSET -2.33842 -0.294052 0.168128
                  }
                }
              }
              JOINT rPinky1
              {
                OFFSET -8.27202 -0.0477905 -0.4584
                CHANNELS 3 Zrotation Xrotation Yrotation
                JOINT rPinky2
                {
                  OFFSET -1.82734 -0.647385 -0.700984
                  CHANNELS 3 Zrotation Xrotation Yrotation
                  End Site
                  {
                    OFFSET -1.69225 -0.51767 -0.607171
                  }
                }
              }
            }
          }
        }
      }
      JOINT lCollar
      {
        OFFSET 2.68224 19.2634 -4.8768
        CHANNELS 3 Zrotation Xrotation Yrotation
        JOINT lShldr
        {
          OFFSET 8.77824 -1.95073 1.46304
          CHANNELS 3 Zrotation Xrotation Yrotation
          JOINT lForeArm
          {
            OFFSET 28.1742 -1.7115 0.48768
            CHANNELS 3 Zrotation Xrotation Yrotation
            JOINT lHand
            {
              OFFSET 22.5879 0.773209 7.07136
              CHANNELS 3 Zrotation Xrotation Yrotation
              JOINT lThumb1
              {
                OFFSET 1.2192 -0.487915 3.41376
                CHANNELS 3 Zrotation Xrotation Yrotation
                JOINT lThumb2
                {
                  OFFSET 3.37035 -0.52449 3.41376
                  CHANNELS 3 Zrotation Xrotation Yrotation
                  End Site
                  {
                    OFFSET 1.78271 -1.18214 1.43049
                  }
                }
              }
              JOINT lIndex1
              {
                OFFSET 7.75947 0.938293 5.60832
                CHANNELS 3 Zrotation Xrotation Yrotation
                JOINT lIndex2
                {
                  OFFSET 2.54057 -0.884171 1.56538
                  CHANNELS 3 Zrotation Xrotation Yrotation
                  End Site
                  {
                    OFFSET 1.62519 -0.234802 1.16502
                  }
                }
              }
              JOINT lMid1
              {
                OFFSET 8.24714 1.18213 3.41376
                CHANNELS 3 Zrotation Xrotation Yrotation
                JOINT lMid2
                {
                  OFFSET 3.10165 -0.590103 1.0647
                  CHANNELS 3 Zrotation Xrotation Yrotation
                  End Site
                  {
                    OFFSET 2.48547 -0.328903 0.83742
                  }
                }
              }
              JOINT lRing1
              {
                OFFSET 8.82822 0.546677 1.51678
                CHANNELS 3 Zrotation Xrotation Yrotation
                JOINT lRing2
                {
                  OFFSET 2.60934 -0.819778 -0.0198488
                  CHANNELS 3 Zrotation Xrotation Yrotation
                  End Site
                  {
                    OFFSET 2.33842 -0.294052 0.168128
                  }
                }
              }
              JOINT lPinky1
              {
                OFFSET 8.27202 -0.0477905 -0.4584
                CHANNELS 3 Zrotation Xrotation Yrotation
                JOINT lPinky2
                {
                  OFFSET 1.82734 -0.647385 -0.700984
                  CHANNELS 3 Zrotation Xrotation Yrotation
                  End Site
                  {
                    OFFSET 1.69225 -0.51767 -0.607171
                  }
                }
              }
            }
          }
        }
      }
    }
  }
  JOINT rButtock
  {
    OFFSET -8.77824 4.35084 1.2192
    CHANNELS 3 Zrotation Xrotation Yrotation
    JOINT rThigh
    {
      OFFSET 0 -1.70687 -2.19456
      CHANNELS 3 Zrotation Xrotation Yrotation
      JOINT rShin
      {
        OFFSET 0 -36.8199 0.73152
        CHANNELS 3 Zrotation Xrotation Yrotation
        JOINT rFoot
        {
          OFFSET 0.73152 -45.1104 -5.12064
          CHANNELS 3 Zrotation Xrotation Yrotation
          End Site
          {
            OFFSET -1.1221 -3.69964 12.103
          }
        }
      }
    }
  }
  JOINT lButtock
  {
    OFFSET 8.77824 4.35084 1.2192
    CHANNELS 3 Zrotation Xrotation Yrotation
    JOINT lThigh
    {
      OFFSET 0 -1.70687 -2.19456
      CHANNELS 3 Zrotation Xrotation Yrotation
      JOINT lShin
      {
        OFFSET 0 -36.8199 0.73152
        CHANNELS 3 Zrotation Xrotation Yrotation
        JOINT lFoot
        {
          OFFSET -0.73152 -45.1104 -5.12064
          CHANNELS 3 Zrotation Xrotation Yrotation
          End Site
          {
            OFFSET 1.1221 -3.69964 12.103
          }
        }
      }
    }
  }
}
MOTION
Frames:	5
Frame Time:	0.03333
44.5473 75.4169 49.985800000000005 32.630178 -39.375128 -20.916525 -9.785252 21.81858 -155.107361 8.757694 2.575801 168.729308 9.930771 19.840657 83.055211 -35.217194 9.64087 -52.281212 0.000335 -0.0 -0.000537 0.000335 -0.0 -0.000537 -143.619916 38.233149 148.080114 -7.168879 -3.325914 34.019737 52.642924 13.318906 -169.737948 179.874892 22.769581 148.086483 -67.034253 37.76183 34.644637 13.698847 -18.253945 19.350794 -148.887443 -12.60892 120.245796 -62.462646 57.286143 45.897894 23.903909 -61.333818 1.399002 80.627874 -77.900476 52.346621 -145.12069 0.267674 -179.212554 -73.709466 -78.00343 -95.207448 -151.10746 33.059435 -146.77019 0.851873 -2.615675 -2.753203 -1.929185 -13.545186 2.784379 121.047614 -6.674694 -178.631496 -83.906138 -28.082494 91.020938 124.851915 59.823014 -101.433136 3.030021 2.964228 -0.542221 -9.790088 -12.323048 5.446138 152.314307 -18.947896 -121.431037 169.480509 -31.86477 -118.343458 -2.100121 -6.305472 1.08071 -29.335791 -60.229016 -6.397995 8.7e-05 -0.018213 0.007616 -4.293438 41.438062 -7.7131 146.227014 15.470743 142.74656 -16.149995 41.626055 -5.887019 -0.000554 -0.000172 0.000713 -20.246129 -35.030551 50.993023 56.572285 24.391961 -81.347777 61.525792 -34.541703 -9.600962 179.993528 75.747945 0.006678 -156.214317 6.395478 -75.816793 -114.630092 15.376168 42.471512 -18.826974 -16.399568 42.124265
46.3224 78.2674 52.701 41.316569 -40.631394 -26.867806 -15.081061 25.922824 6.143857 -6.391712 -11.044928 6.876042 -5.629736 30.958316 -141.296325 32.596834 30.809169 161.073421 0.001082 0.0 0.002288 0.001082 0.0 0.002288 -159.212073 -46.72866 170.13665 -21.02992 -42.906643 -16.199178 -170.212014 -22.563694 -77.857317 -6.797081 32.459917 2.334241 -93.743481 37.96249 53.548377 52.037501 -41.519717 26.24511 -83.733624 42.329055 69.989402 -82.376727 52.5245 59.749398 -160.672535 -6.668133 143.244514 -168.006135 -19.064895 143.874174 -145.11676 0.26711 -179.213785 12.049856 35.302965 -4.998212 -43.067078 -47.446075 -41.869171 -22.377929 -40.007057 -24.201316 0.048933 0.29239 -0.065107 -50.115722 16.222791 -5.142328 5.067596 -46.96107 -74.715997 7.47929 -12.114177 4.136214 93.743487 37.963419 -53.5486 136.210595 -21.674145 -77.938854 108.427395 34.160892 -91.742966 -104.91589 -67.83968 -55.092749 153.321735 13.62909 -138.862271 -27.655547 -57.432242 -5.421769 66.264664 72.867756 -83.837453 159.837164 0.052395 -176.103273 158.217837 60.369837 150.795855 -1.281562 -0.638888 1.817678 -0.001945 -0.001319 -0.001944 -23.52857 -34.133942 -75.854102 -52.671276 16.692277 82.885309 -90.478731 17.156481 10.274991 -0.001945 -0.001319 -0.001944 72.970333 -52.637764 69.735903 144.864113 62.051837 -148.104644 -160.121502 -32.65318 0.288015
46.7978 81.6075 54.6535 52.994224 -41.656882 -34.088505 -19.260286 24.480046 -32.442656 1.405891 -13.590895 45.338306 -8.625213 28.357743 -122.885277 37.472309 18.79658 146.335925 -0.000415 -0.0 0.00216 0.005132 -0.0 -0.003664 -155.446036 -3.134505 161.757695 -18.737983 20.648622 2.96549 6.07289 -0.678667 -133.98326 160.612063 -30.804255 141.239635 93.028265 -51.083861 40.501145 -137.217962 -85.865273 -176.339984 12.217187 -21.784606 -5.118743 10.046458 5.784978 -0.2584 2.100599 -6.305289 -1.082137 -12.663693 35.337923 10.05352 -75.406818 72.952546 93.42026 -95.437326 82.919355 104.485088 -150.429262 30.47547 -146.249632 -155.746873 36.278967 -145.974632 -1.989826 -14.052842 2.882231 -49.872917 11.262871 11.141235 7.951462 -31.871071 -55.782179 5.939307 -13.227401 3.995162 12.305505 11.515001 -3.094597 46.579736 23.253772 -46.213451 166.821384 -43.974017 -122.061189 13.44715 39.580684 -6.403063 -23.901709 -61.334219 -1.397007 -0.511328 7.241383 -1.212695 72.755658 -72.144937 89.771409 150.964362 -1.629269 -176.559693 149.11904 25.57246 145.200058 85.258926 -52.030045 84.381441 -179.942889 75.749949 -0.04699 144.56708 31.336476 90.328041 43.791986 24.819176 -87.276963 31.712289 -11.925017 0.640942 0.001933 -3.8e-05 0.0029 76.45203 -43.437702 -99.407244 -120.296957 -63.837696 -24.908645 9.448009 39.497906 78.38539
46.1151 84.71889999999999 55.4134 62.930991 -43.298595 -41.491967 -26.102676 23.426398 9.969144 -6.514858 -11.72328 3.143308 -10.109965 16.630607 -50.848277 23.485286 -21.037617 84.679128 -0.000505 0.0 -0.004753 -0.000436 -0.0 0.000882 -150.168401 21.535015 155.274763 -25.779974 24.422554 9.468155 -70.983505 30.580816 -94.649071 59.162012 -64.898149 47.127612 -93.743185 37.964095 53.549004 -130.336029 -18.969793 76.80219 169.567774 -65.842524 109.955427 2.26771 22.77273 -2.28387 68.982201 -80.154627 40.576766 167.496683 -64.007031 132.857341 -0.000125 0.063958 0.018856 9.7972 6.722478 0.81392 -146.228095 15.470924 -142.745755 12.799798 31.131312 4.750674 155.503904 -3.514303 -161.839251 109.369477 65.657941 -74.277169 -2.673962 43.370548 -46.529785 8.317953 2.506928 2.190273 176.296332 -13.919426 -89.718686 -177.773397 -18.43241 -97.86438 7.260131 10.780465 -4.548544 159.305136 -8.59636 -110.084992 111.804909 56.306102 -102.278368 176.48818 -42.268262 -142.582671 0.020995 -1.725881 0.543565 155.288874 -1.304334 -172.008069 161.70593 70.564058 151.026044 85.759765 -52.543767 84.272921 -179.999788 75.748315 -0.000219 139.515218 27.378132 -180.0 25.660725 -33.36503 -124.907117 -28.811791 2.440697 -15.193242 2.2e-05 -0.001557 -2.8e-05 59.788328 -28.400592 -105.480333 -48.583937 -45.342031 31.030829 114.377349 -50.704455 -154.290413
47.9788 87.3732 57.130700000000004 68.769833 -43.994786 -46.098312 -25.890324 21.88468 -36.383829 1.34738 -13.359769 48.618099 10.745869 20.358747 96.271142 -33.569651 27.402009 -61.162417 -0.001121 -0.0 0.000602 -0.000773 0.0 -0.00092 3.54262 -62.053102 -13.038125 -62.354822 -78.356703 -105.296913 -1.728212 5.387224 -132.867538 161.872494 -33.179389 140.243705 87.248063 -50.68833 36.415341 -13.309443 -56.287812 -35.69434 52.742664 -67.698597 9.662128 17.359643 -0.980378 -5.200969 0.540667 -1.590173 -0.29315 -4.719977 20.800767 4.250977 -74.841311 72.959717 92.828468 -88.355094 83.138846 97.34309 -145.17256 12.066769 -141.824941 -44.473903 -49.392823 -45.028676 82.106362 68.325418 -85.221418 153.538123 -16.902851 -121.055016 8.445338 43.754615 -43.077635 4.604073 1.000783 1.760066 4.165736 4.057658 -0.7846 37.091817 24.794757 -34.990205 -10.747424 -19.047991 4.723446 150.266817 -0.410932 -109.939836 160.09783 -4.901576 -142.967603 161.232713 1.251549 -142.227447 70.379675 -72.129612 87.280332 71.78931 83.243774 -89.579743 8.191407 -17.576122 7.728216 23.988041 -41.363699 25.041697 -0.000121 -0.000122 0.000156 -43.507143 -26.642459 -23.945325 -3.94917 29.158004 48.177828 155.816386 -55.921929 46.372861 0.005405 0.001283 0.002702 53.470237 -4.333007 -88.763143 -16.106731 -8.378234 -36.93941 18.249857 -0.035791 165.212878
